<svg id="カメラアイコン9_1_" data-name="カメラアイコン9(1)" xmlns="http://www.w3.org/2000/svg" width="26" height="22" viewBox="0 0 26 22">
  <path id="パス_22" data-name="パス 22" d="M193.7,220.786a2.709,2.709,0,1,0,2.685,2.709A2.7,2.7,0,0,0,193.7,220.786Z" transform="translate(-180.701 -210.773)" fill="#fff"/>
  <path id="パス_23" data-name="パス 23" d="M25.227,49.069a2.607,2.607,0,0,0-1.873-.8H20.489a.6.6,0,0,1-.545-.369l-.858-1.966a2.644,2.644,0,0,0-2.415-1.607H9.329a2.647,2.647,0,0,0-2.416,1.607L6.056,47.9a.6.6,0,0,1-.545.369H2.646a2.613,2.613,0,0,0-1.875.8A2.763,2.763,0,0,0,0,50.99V63.6a2.762,2.762,0,0,0,.771,1.922,2.608,2.608,0,0,0,1.875.8H23.354a2.6,2.6,0,0,0,1.873-.8A2.753,2.753,0,0,0,26,63.6V50.99A2.753,2.753,0,0,0,25.227,49.069Zm-7.988,12.2a5.86,5.86,0,0,1-8.477,0,6.312,6.312,0,0,1,0-8.73,5.864,5.864,0,0,1,8.477,0,6.314,6.314,0,0,1,0,8.73Zm6.221-8.1H21.642V51.311h1.818Z" transform="translate(0 -44.326)" fill="#fff"/>
</svg>
