<svg xmlns="http://www.w3.org/2000/svg" width="21.755" height="29.697" viewBox="0 0 21.755 29.697">
  <g id="グループ_60" data-name="グループ 60" transform="translate(0.311 0.688)">
    <path id="パス_55" data-name="パス 55" d="M114.264,313.139,107.3,309.7a6.461,6.461,0,0,0-7.995,1.862l-4.39,5.736a1.821,1.821,0,0,0-.021,2.188l12.73,17.3a1.824,1.824,0,0,0,3.255-.707l2.477-11.893,1.88-9.031A1.821,1.821,0,0,0,114.264,313.139ZM101.9,316.387c-.3,0-.6.009-.9.026a4.4,4.4,0,0,1,8.7.9,4.242,4.242,0,0,1-.161,1.171A14.218,14.218,0,0,0,101.9,316.387Z" transform="translate(-94.352 -309.025)" fill="#fff" stroke="#f2a2a2" stroke-miterlimit="10" stroke-width="1"/>
    <path id="パス_56" data-name="パス 56" d="M161.755,355.017c0-.154-.007-.308-.019-.462a7.445,7.445,0,0,0-3.757-5.525" transform="translate(-142.785 -339.567)" fill="none" stroke="#f2a2a2" stroke-miterlimit="10" stroke-width="1"/>
    <path id="パス_57" data-name="パス 57" d="M100.391,340.26a14.068,14.068,0,0,0-6.46,1.9c-.064.038-.128.076-.192.116" transform="translate(-93.74 -332.872)" fill="none" stroke="#f2a2a2" stroke-miterlimit="10" stroke-width="1"/>
    <path id="パス_58" data-name="パス 58" d="M149.957,415.556a6.99,6.99,0,0,1-2.859.848,7.921,7.921,0,0,1-1.9-.045" transform="translate(-133.029 -390.357)" fill="none" stroke="#f2a2a2" stroke-miterlimit="10" stroke-width="1"/>
    <path id="パス_59" data-name="パス 59" d="M150.909,420.842a6.283,6.283,0,0,1-2.445.7,7.138,7.138,0,0,1-1.619-.028" transform="translate(-134.284 -394.393)" fill="none" stroke="#f2a2a2" stroke-miterlimit="10" stroke-width="1"/>
    <path id="パス_60" data-name="パス 60" d="M121.192,320.654c-3.219.568-6.112,2.26-8.926,3.922-.13.076-.277.184-.266.334a.346.346,0,0,0,.19.247,2.051,2.051,0,0,0,1.594.006c3.289-.91,6.608-2.044,10.017-1.866a1.351,1.351,0,0,1,.473.085.973.973,0,0,1,.329,1.335,2.491,2.491,0,0,1-1.188.949,3.852,3.852,0,0,0-1.3.819" transform="translate(-107.68 -317.903)" fill="none" stroke="#f2a2a2" stroke-miterlimit="10" stroke-width="1"/>
  </g>
</svg>
