<svg xmlns="http://www.w3.org/2000/svg" width="26.521" height="21.767" viewBox="0 0 26.521 21.767">
  <g id="グループ_59" data-name="グループ 59" transform="translate(-122.339 -732.575)">
    <path id="パス_52" data-name="パス 52" d="M293.254,147.16H276.623c-.745,0-1.348.826-1.348,1.846V154l-3.483,1.433a1.994,1.994,0,0,0-1.022,1.914l.106,8.735h2.665c0-.04,0-.079-.006-.119,0-.025,0-.051,0-.077a2.316,2.316,0,0,1,.023-.345,3.051,3.051,0,0,1,6.063,0,2.324,2.324,0,0,1,.023.345c0,.026,0,.053,0,.077q0,.059-.006.119h10.591c0-.025,0-.051,0-.077a2.324,2.324,0,0,1,.023-.345,3.051,3.051,0,0,1,6.063,0,2.328,2.328,0,0,1,.023.345c0,.026,0,.053,0,.077h.962V152.686C297.289,149.632,295.483,147.16,293.254,147.16Zm1.37,13.782H279.155v-9.976h15.469Z" transform="translate(-148.43 585.415)" fill="#fff"/>
    <path id="長方形_86" data-name="長方形 86" d="M0,0H2.946a0,0,0,0,1,0,0V2.315A1.473,1.473,0,0,1,1.473,3.788h0A1.473,1.473,0,0,1,0,2.315V0A0,0,0,0,1,0,0Z" transform="translate(129.57 736.387)" fill="#f2a2a2" stroke="#fff" stroke-miterlimit="10" stroke-width="0.5"/>
    <path id="長方形_87" data-name="長方形 87" d="M0,0H2.946a0,0,0,0,1,0,0V2.315A1.473,1.473,0,0,1,1.473,3.788h0A1.473,1.473,0,0,1,0,2.315V0A0,0,0,0,1,0,0Z" transform="translate(132.506 736.387)" fill="#fff" stroke="#fff" stroke-miterlimit="10" stroke-width="0.25"/>
    <path id="長方形_88" data-name="長方形 88" d="M.054,0H2.892a.054.054,0,0,1,.054.054V2.315A1.473,1.473,0,0,1,1.473,3.788h0A1.473,1.473,0,0,1,0,2.315V.054A.054.054,0,0,1,.054,0Z" transform="translate(135.471 736.387)" fill="#f2a2a2" stroke="#fff" stroke-miterlimit="10" stroke-width="0.5"/>
    <path id="長方形_89" data-name="長方形 89" d="M0,0H2.946a0,0,0,0,1,0,0V2.315A1.473,1.473,0,0,1,1.473,3.788h0A1.473,1.473,0,0,1,0,2.315V0A0,0,0,0,1,0,0Z" transform="translate(138.423 736.387)" fill="#fff" stroke="#fff" stroke-miterlimit="10" stroke-width="0.25"/>
    <path id="長方形_90" data-name="長方形 90" d="M0,0H2.946a0,0,0,0,1,0,0V2.315A1.473,1.473,0,0,1,1.473,3.788h0A1.473,1.473,0,0,1,0,2.315V0A0,0,0,0,1,0,0Z" transform="translate(141.369 736.387)" fill="#f2a2a2" stroke="#fff" stroke-miterlimit="10" stroke-width="0.5"/>
    <path id="長方形_91" data-name="長方形 91" d="M0,0H2.946a0,0,0,0,1,0,0V2.315A1.473,1.473,0,0,1,1.473,3.788h0A1.473,1.473,0,0,1,0,2.315V0A0,0,0,0,1,0,0Z" transform="translate(144.289 736.387)" fill="#fff" stroke="#fff" stroke-miterlimit="10" stroke-width="0.25"/>
    <path id="パス_53" data-name="パス 53" d="M294.845,239.452a2.112,2.112,0,0,1-4.224,0,2.014,2.014,0,0,1,.011-.215,2.112,2.112,0,0,1,4.2,0A2.014,2.014,0,0,1,294.845,239.452Z" transform="translate(-164.538 512.239)" fill="none" stroke="#fff" stroke-miterlimit="10" stroke-width="1"/>
    <path id="パス_54" data-name="パス 54" d="M383.294,239.653a2.112,2.112,0,0,1-4.224,0,2.009,2.009,0,0,1,.011-.215,2.112,2.112,0,0,1,4.2,0A2,2,0,0,1,383.294,239.653Z" transform="translate(-236.307 512.076)" fill="none" stroke="#fff" stroke-miterlimit="10" stroke-width="1"/>
  </g>
</svg>
