<svg xmlns="http://www.w3.org/2000/svg" width="21.796" height="32.161" viewBox="0 0 21.796 32.161">
  <g id="グループ_84" data-name="グループ 84" transform="translate(-265 -160)">
    <path id="パス_72" data-name="パス 72" d="M96.138,52.534V46.26a2.095,2.095,0,0,0-3.257-1.745V42.6a2.37,2.37,0,0,0-2.264-2.458,2.148,2.148,0,0,0-1.436.56,2.257,2.257,0,1,0-4.512-.08,2.133,2.133,0,0,0-1.337-.479A2.37,2.37,0,0,0,81.068,42.6v9.542l-.011,2.579L79.7,52.87c-.171-.224-.345-.479-.53-.75A10.267,10.267,0,0,0,78.079,50.7a2.161,2.161,0,0,0-3.7,1.911,15.286,15.286,0,0,0,1.57,3.479c.3.565.612,1.149.865,1.663,1.255,2.54,4.269,7.349,5.507,9.3a2.6,2.6,0,0,1,.406,1.4v2.083h.936V68.452a3.535,3.535,0,0,0-.551-1.9c-1.23-1.937-4.223-6.713-5.458-9.212-.26-.527-.575-1.117-.879-1.688a16.466,16.466,0,0,1-1.469-3.17,1.228,1.228,0,0,1,2.108-1.122,9.649,9.649,0,0,1,.979,1.286c.183.269.373.547.554.784l2.2,2.991a.468.468,0,0,0,.845-.275l.017-4V42.6a1.34,1.34,0,1,1,2.655,0v9.93H85.6v-11.7a1.34,1.34,0,1,1,2.655,0v11.7H89.29V42.6a1.34,1.34,0,1,1,2.655,0V52.867h.936V46.26a1.16,1.16,0,1,1,2.321,0v6.281c.035,2.312-.03,8.672-.743,10.312a22.89,22.89,0,0,0-1.615,5.313l0,2.369h.936l0-2.369a22.34,22.34,0,0,1,1.537-4.94C96.256,61.066,96.143,52.874,96.138,52.534Z" transform="translate(190.651 121.626)" fill="#6c4e44"/>
    <line id="線_28" data-name="線 28" x2="10.05" transform="translate(273.876 190.824)" fill="none" stroke="#6c4e44" stroke-miterlimit="10" stroke-width="1"/>
  </g>
</svg>
