<svg xmlns="http://www.w3.org/2000/svg" width="65" height="67.554" viewBox="0 0 65 67.554">
  <path id="パス_24" data-name="パス 24" d="M224.637,100.085c-8.651-5.238-20.12-8.126-32.321-8.126s-23.67,2.888-32.321,8.126h-.179l32.5,59.428,32.5-59.428Zm-5.663.083a71.993,71.993,0,0,0-14.954,2.169,6.39,6.39,0,0,0-2.4-1.981,12.667,12.667,0,0,0-6.311-1.174,11.381,11.381,0,0,0-5.239,1.535,10.486,10.486,0,0,0-7.392-2.594c-3.367,0-6.335,1.217-7.744,2.989a73.862,73.862,0,0,0-9.281-.942c7.5-3.773,16.818-5.828,26.664-5.828S211.481,96.4,218.974,100.168Zm-31.894,4.221a62.207,62.207,0,0,0-8.375-2.535,5.861,5.861,0,0,1,3.973-1.348c2.6,0,4.711,1.289,4.711,2.872A1.921,1.921,0,0,1,187.079,104.389Zm5.423-1.8a5.994,5.994,0,0,1,3.182-1.033,6.9,6.9,0,0,1,3.449.642,3.425,3.425,0,0,1,1.363,1.155,55.188,55.188,0,0,0-8.2,3.31c-.035-.018-.075-.034-.11-.051l.469-.262C191.086,105.3,191.02,103.685,192.5,102.588Zm12.648,25.66H179.338l-14.07-25.726C187.392,103.381,204.97,114.574,205.15,128.247Zm-21.444,7.988h17.218l-1.378,2.521H185.085Zm-1.3-2.383-1.761-3.221h23.347l-1.76,3.221Zm3.985,7.287h11.854l-5.927,10.839Zm21.805-18.2c-1.842-5.674-6.466-10.745-12.97-14.66a60.349,60.349,0,0,1,24.137-5.759Z" transform="translate(-159.815 -91.959)" fill="#988484"/>
</svg>
