<svg xmlns="http://www.w3.org/2000/svg" width="25.061" height="29.934" viewBox="0 0 25.061 29.934">
  <g id="グループ_85" data-name="グループ 85" transform="translate(-38.715 -64.739)">
    <path id="パス_73" data-name="パス 73" d="M53.285,75.256l-3.307-2.607v-2a1.323,1.323,0,0,0-1.322-1.321H47.543v-1.9h1.345a1.091,1.091,0,0,0,1.08-.95h7.388a1.177,1.177,0,0,1,1.176,1.176v.319h.79v-.319a1.968,1.968,0,0,0-1.966-1.966H49.968a1.091,1.091,0,0,0-1.08-.95H43.924a1.091,1.091,0,0,0-1.09,1.09v.51a1.091,1.091,0,0,0,1.09,1.09h1.345v1.9H44.156a1.323,1.323,0,0,0-1.322,1.321v2l-3.307,2.607a2.12,2.12,0,0,0-.812,1.675V93.12a1.555,1.555,0,0,0,1.553,1.553H52.544A1.555,1.555,0,0,0,54.1,93.12V76.931A2.12,2.12,0,0,0,53.285,75.256Zm-9.361-8.617a.3.3,0,0,1-.3-.3v-.51a.3.3,0,0,1,.3-.3h4.965a.3.3,0,0,1,.3.3v.51a.3.3,0,0,1-.3.3Zm2.829.79v1.9h-.694v-1.9Zm-3.129,3.222a.532.532,0,0,1,.532-.532h4.5a.532.532,0,0,1,.532.532v1.8H43.624ZM53.308,93.12a.764.764,0,0,1-.763.763H40.268a.764.764,0,0,1-.763-.763V87.208h13.8Zm0-13.708H39.5V76.931a1.335,1.335,0,0,1,.511-1.054l3.35-2.64h6.081l3.35,2.64a1.335,1.335,0,0,1,.511,1.054Z" fill="#6c4e44"/>
    <rect id="長方形_110" data-name="長方形 110" width="0.79" height="1.027" transform="translate(58.533 73.504)" fill="#6c4e44"/>
    <rect id="長方形_111" data-name="長方形 111" width="0.79" height="1.274" transform="translate(58.533 71.419)" fill="#6c4e44"/>
    <rect id="長方形_112" data-name="長方形 112" width="1.274" height="0.79" transform="matrix(0.342, -0.94, 0.94, 0.342, 56.766, 72.242)" fill="#6c4e44"/>
    <rect id="長方形_113" data-name="長方形 113" width="1.027" height="0.79" transform="translate(56.138 73.969) rotate(-70)" fill="#6c4e44"/>
    <rect id="長方形_114" data-name="長方形 114" width="1.027" height="0.79" transform="matrix(0.643, -0.766, 0.766, 0.643, 54.079, 72.623)" fill="#6c4e44"/>
    <rect id="長方形_115" data-name="長方形 115" width="1.274" height="0.79" transform="translate(55.261 71.215) rotate(-49.999)" fill="#6c4e44"/>
    <rect id="長方形_116" data-name="長方形 116" width="0.79" height="1.274" transform="translate(61.17 70.746) rotate(-40.001)" fill="#6c4e44"/>
    <rect id="長方形_117" data-name="長方形 117" width="0.79" height="1.027" transform="translate(62.511 72.343) rotate(-40)" fill="#6c4e44"/>
    <rect id="長方形_118" data-name="長方形 118" width="0.79" height="1.027" transform="translate(60.624 73.274) rotate(-20.002)" fill="#6c4e44"/>
    <path id="パス_74" data-name="パス 74" d="M142.6,87.661l-.621-.226-.556-.466-.819.976.605.508.584-.7-.311.854.742.27.311-.854v.909h.79v-.909l.311.854.742-.27-.311-.854.584.7.605-.508-.819-.976-.556.466-.621.226Z" transform="translate(-84.003 -18.328)" fill="#6c4e44"/>
    <rect id="長方形_119" data-name="長方形 119" width="0.79" height="1.274" transform="translate(59.911 71.315) rotate(-20)" fill="#6c4e44"/>
  </g>
</svg>
