<svg xmlns="http://www.w3.org/2000/svg" width="31.703" height="22.934" viewBox="0 0 31.703 22.934">
  <g id="グループ_83" data-name="グループ 83" transform="translate(-36.965 -68.23)">
    <path id="パス_68" data-name="パス 68" d="M196,98.923a3.914,3.914,0,0,0-4.686-3.222l-5.993,1.282-.2.9,6.369-1.363a3.073,3.073,0,0,1,2.28,5.605l-8.107,5.1.251.836,8.3-5.228A3.911,3.911,0,0,0,196,98.923Z" transform="translate(-127.379 -23.542)" fill="#6c4e44"/>
    <path id="パス_69" data-name="パス 69" d="M51.463,70.174a1.36,1.36,0,0,1,2.7.258v.794l.841.106v-.9a2.2,2.2,0,0,0-4.363-.418L50.061,73l.966-.563Z" transform="translate(-11.259)" fill="#6c4e44"/>
    <path id="パス_70" data-name="パス 70" d="M54.441,125.332l-.363-6.939,11.22.561.042-.84-11.224-.561.421-2.916-.833-.12-.445,3.081-2.637.551.172.824,2.445-.511.35,6.694-1.738-.835-.364.758,2.2,1.055.514,2.474.823-.173-.474-2.262,10.875-2.716-.2-.816Z" transform="translate(-11.742 -39.795)" fill="#6c4e44"/>
    <path id="パス_71" data-name="パス 71" d="M56.99,96.878l-14.783-1.86L38.119,97.4l-1.154,4.771,1.689,8.776,4.072,3.249,7.545-2.241,7.563-3.8-1.924-6.4Zm-.164,10.841L50,111.159l-7.088,2.105-3.486-2.782-1.6-8.292,1.026-4.244,3.532-2.058L55.969,97.6l-.927,4.188Z" transform="translate(0 -23.031)" fill="#6c4e44"/>
  </g>
</svg>
